HIERARCHY
ROOT Hips
{
  OFFSET 5.70366 102.999 -1.77653
  CHANNELS 6 Xposition Yposition Zposition Zrotation Xrotation Yrotation
  JOINT RightUpLeg
  {
    OFFSET -8.9458 -8.66707 0.101652
    CHANNELS 3 Zrotation Xrotation Yrotation
    JOINT RightLeg
    {
      OFFSET 0 -44.4227 1.3727
      CHANNELS 3 Zrotation Xrotation Yrotation
      JOINT RightFoot
      {
        OFFSET 0.253549 -42.0924 -1.46059
        CHANNELS 3 Zrotation Xrotation Yrotation
        JOINT RightToes
        {
          OFFSET 0.04 -4.41509 8.4991
          CHANNELS 3 Zrotation Xrotation Yrotation
          End Site
          {
            OFFSET -0.08 -0.137448 9.77979
          }
        }
      }
    }
  }
  JOINT Spine
  {
    OFFSET 0 11.8905 0
    CHANNELS 3 Zrotation Xrotation Yrotation
    JOINT Spine1
    {
      OFFSET 0 25.6574 0.127663
      CHANNELS 3 Zrotation Xrotation Yrotation
      JOINT HEad
      {
        OFFSET 0 8.73416 0.011341
        CHANNELS 3 Zrotation Xrotation Yrotation
        End Site
        {
          OFFSET -0.29 12.7742 2.51395
        }
      }
      JOINT LeftShoulder1
      {
        OFFSET 8.99 -0.362252 -0.22
        CHANNELS 3 Zrotation Xrotation Yrotation
        JOINT LeftArm
        {
          OFFSET 10.2827 -0.00337999 0.322123
          CHANNELS 3 Zrotation Xrotation Yrotation
          JOINT LeftForeArm
          {
            OFFSET 26.2597 0.099144 -1.42434
            CHANNELS 3 Zrotation Xrotation Yrotation
            JOINT LeftHand
            {
              OFFSET 22.0902 0.085362 1.02216
              CHANNELS 3 Zrotation Xrotation Yrotation
              End Site
              {
                OFFSET 13.419 -0.6 1.50291
              }
            }
          }
        }
      }
      JOINT RightShoulder
      {
        OFFSET -8.99 -0.362252 -0.22
        CHANNELS 3 Zrotation Xrotation Yrotation
        JOINT RightArm
        {
          OFFSET -10.2827 -0.00338 0.322123
          CHANNELS 3 Zrotation Xrotation Yrotation
          JOINT RightForeArm
          {
            OFFSET -26.364 0.099144 -1.42434
            CHANNELS 3 Zrotation Xrotation Yrotation
            JOINT RightHand
            {
              OFFSET -22.0324 0.085362 1.02216
              CHANNELS 3 Zrotation Xrotation Yrotation
              End Site
              {
                OFFSET -13.3284 -0.6 1.50291
              }
            }
          }
        }
      }
    }
  }
  JOINT LeftUpLeg
  {
    OFFSET 8.9458 -8.66707 0.101652
    CHANNELS 3 Zrotation Xrotation Yrotation
    JOINT LeftLeg
    {
      OFFSET 0 -44.4227 1.3727
      CHANNELS 3 Zrotation Xrotation Yrotation
      JOINT LeftFoot
      {
        OFFSET -0.253549 -42.0924 -1.46059
        CHANNELS 3 Zrotation Xrotation Yrotation
        JOINT LeftToes
        {
          OFFSET -0.04 -4.41509 8.4991
          CHANNELS 3 Zrotation Xrotation Yrotation
          End Site
          {
            OFFSET 0.08 -0.047448 9.77979
          }
        }
      }
    }
  }
}
MOTION
Frames:	12
Frame Time:	0.0416667
-180.17 104.213 -1.66312 0.00945303 -0.389512 89.4636 0.0390406 -3.12017 -1.77703 -1.51146 12.82 -1.84347 -5.54428 -5.85358 -0.0712684 0.0462048 0.00053089 0.662642 0.298592 1.86424 0.23367 -2.39501 0.272824 0.669946 4.64588 8.98403 0.911321 -6.27649 -0.328362 6.10087 -0.414074 -43.3905 3.34131 1.79206 6.42345 -5.68974 -0.284001 9.9706 -3.69566 14.4945 0.549936 -2.10801 -5.28849 -34.9109 -9.90289 -5.92111 15.4261 8.22314 0.428842 9.9985 3.46738 -1.1815 -1.66653 2.27844 2.17629 10.7894 19.7047 0.475099 -4.38566 -0.00157992 -1.3539e-009 8.75217e-006 -1.45966e-008 
-180.163 104.213 -1.66558 0.0103813 -0.398078 89.4624 0.0456986 -3.09964 -1.77235 -1.51472 12.7957 -1.83219 -5.54555 -5.8371 -0.0712663 0.0462048 0.00053089 0.662642 0.286179 1.90813 0.245056 -2.38493 0.209542 0.677638 4.59726 8.98714 1.07113 -6.31235 -0.328383 6.06695 -0.35148 -43.3638 3.38869 1.7633 6.42138 -5.70828 -0.233876 9.97047 -3.7075 14.4761 0.552504 -2.09913 -5.27945 -34.9064 -9.88048 -5.91481 15.556 8.22008 0.342062 9.99897 3.42129 -1.16779 -1.67901 2.28837 2.16732 10.8304 19.661 0.453665 -4.39691 -0.00157995 -1.3539e-009 8.75217e-006 -1.45966e-008 
-180.153 104.213 -1.67582 -8.40531e-005 -0.412378 89.4615 0.0576042 -3.09795 -1.75837 -1.51771 12.7842 -1.84176 -5.5594 -5.82642 -0.071265 0.0462048 0.00053089 0.662642 0.297877 1.93788 0.255281 -2.42107 0.166034 0.692628 4.60548 9.07083 1.19652 -6.33476 -0.328405 6.03123 -0.277443 -43.2842 3.43638 1.68468 6.41162 -5.73283 -0.154963 9.97018 -3.73312 14.5281 0.563542 -2.05023 -5.38237 -34.8299 -9.89483 -5.85757 15.6115 8.19366 0.307569 9.99938 3.38138 -1.14489 -1.69558 2.31291 2.14714 10.8576 19.6303 0.44775 -4.41709 -0.00157999 -1.3539e-009 8.75217e-006 -1.45966e-008 
-180.161 104.213 -1.69948 -0.0359363 -0.409491 89.4796 0.0280353 -3.14695 -1.78679 -1.49579 12.7939 -1.84077 -5.56089 -5.82021 -0.0712642 0.0462048 0.00053089 0.662642 0.324607 1.90925 0.234516 -2.48961 0.19313 0.684238 4.55439 9.12397 1.18858 -6.31111 -0.326589 6.00723 -0.254141 -43.2475 3.48069 1.66605 6.43113 -5.71996 -0.188422 9.97366 -3.79865 14.6105 0.578448 -1.98762 -5.51375 -34.8225 -9.90142 -5.84293 15.6693 8.20324 0.429648 9.99943 3.3758 -1.16754 -1.73358 2.29357 2.15047 10.8386 19.6591 0.484282 -4.40378 -0.00157996 -1.3539e-009 8.75217e-006 -1.45966e-008 
-180.17 104.213 -1.7247 -0.0623478 -0.399152 89.4917 -0.0142958 -3.17998 -1.82338 -1.47357 12.7898 -1.81035 -5.52887 -5.8097 -0.0712629 0.0462048 0.00053089 0.662642 0.332298 1.85963 0.215175 -2.54597 0.251346 0.676403 4.43895 9.09224 1.22244 -6.28374 -0.32484 6.00939 -0.299939 -43.3804 3.44121 1.80548 6.56352 -5.64994 -0.35548 9.9883 -3.91979 14.6745 0.593857 -1.92176 -5.60767 -34.835 -9.93152 -5.84743 15.7122 8.26264 0.520538 9.99898 3.40488 -1.21132 -1.75725 2.24958 2.17485 10.8121 19.688 0.499554 -4.38476 -0.00157992 -1.3539e-009 8.75217e-006 -1.45966e-008 
-180.156 104.213 -1.73733 -0.0526352 -0.402739 89.4823 -0.00784529 -3.14568 -1.80732 -1.49439 12.7578 -1.80774 -5.50224 -5.80751 -0.0712626 0.0462048 0.00053089 0.662642 0.330164 1.79214 0.233306 -2.59854 0.351414 0.706625 4.49996 9.16014 1.19941 -6.21319 -0.319709 5.98257 -0.360714 -43.5455 3.40271 1.96952 6.76396 -5.60687 -0.597297 10.0101 -4.09806 14.7432 0.603613 -1.88227 -5.68029 -34.7755 -9.99092 -5.80782 15.5826 8.29673 0.476294 9.99843 3.46406 -1.21363 -1.72083 2.25424 2.1699 10.7865 19.6685 0.494421 -4.40071 -0.00157996 -1.3539e-009 8.75217e-006 -1.45966e-008 
-180.147 104.213 -1.75733 -0.0541093 -0.409071 89.4738 -0.00317959 -3.12835 -1.79714 -1.51144 12.7308 -1.81934 -5.49711 -5.80863 -0.0712627 0.0462048 0.00053089 0.662642 0.358911 1.72005 0.24241 -2.68804 0.45864 0.733999 4.66799 9.33103 1.11365 -6.05717 -0.308248 5.92332 -0.333825 -43.4662 3.56163 1.92068 6.77078 -5.67725 -0.721547 10.022 -4.21711 14.8466 0.607989 -1.87621 -5.76379 -34.7407 -9.98492 -5.76619 15.4704 8.31516 0.441545 9.99891 3.46064 -1.21943 -1.69458 2.25647 2.1661 10.7499 19.6782 0.507428 -4.41372 -0.00157998 -1.3539e-009 8.75217e-006 -1.45966e-008 
-180.162 104.213 -1.79313 -0.103978 -0.400455 89.4605 -0.0396894 -3.20351 -1.8118 -1.50646 12.7465 -1.79588 -5.48109 -5.81073 -0.071263 0.0462048 0.00053089 0.662642 0.395846 1.69273 0.228528 -2.77854 0.480191 0.735908 4.68045 9.41849 1.21231 -5.985 -0.310319 5.94817 -0.225731 -43.2437 3.70536 1.7146 6.55529 -5.76438 -0.56351 10.0082 -4.16145 14.9451 0.610079 -1.86856 -5.8635 -34.7409 -9.9474 -5.73608 15.5345 8.37624 0.464783 9.99931 3.39751 -1.27372 -1.76116 2.20189 2.1992 10.7499 19.764 0.516693 -4.39714 -0.00157995 -1.3539e-009 8.75217e-006 -1.45966e-008 
-180.175 104.213 -1.82548 -0.144795 -0.386116 89.435 -0.0765731 -3.27597 -1.81199 -1.50993 12.7753 -1.76306 -5.46373 -5.81558 -0.0712636 0.0462048 0.00053089 0.662642 0.375005 1.71794 0.242091 -2.77243 0.438681 0.747008 4.57685 9.51824 1.33557 -6.10051 -0.322301 6.01695 -0.065605 -43.0658 3.72601 1.49874 6.39667 -5.86149 -0.276618 9.98296 -4.0099 14.9702 0.602799 -1.90346 -5.85187 -34.7997 -9.86595 -5.74915 15.5838 8.40684 0.474392 9.99729 3.40007 -1.31779 -1.84145 2.16922 2.20971 10.803 19.8234 0.525165 -4.38969 -0.00157993 -1.3539e-009 8.75217e-006 -1.45966e-008 
-180.179 104.211 -1.86501 -0.135727 -0.38572 89.4117 -0.118881 -3.2727 -1.85536 -1.48522 12.7798 -1.70577 -5.47007 -5.82648 -0.0713258 0.0462048 0.00053089 0.662642 0.326555 1.78146 0.280811 -2.66695 0.399161 0.767296 4.41789 9.84889 1.24999 -6.29043 -0.33199 6.0578 0.0617961 -42.9442 3.74593 1.31114 6.37874 -6.05494 -0.0845274 9.9661 -3.86758 14.9143 0.582994 -1.989 -5.64318 -34.9744 -9.67875 -5.83621 15.6101 8.40105 0.411338 9.99153 3.39836 -1.33805 -1.84958 2.17066 2.196 10.8524 19.827 0.550973 -4.43673 -0.00158003 -1.3539e-009 8.75217e-006 -1.45966e-008 
-180.199 104.198 -1.92659 -0.16575 -0.410361 89.3881 -0.152429 -3.34978 -1.90326 -1.45362 12.8438 -1.64103 -5.44606 -5.86253 -0.0752151 0.0462048 0.00053089 0.662642 0.379866 1.81956 0.331799 -2.63676 0.393575 0.815007 4.25057 10.3536 1.14062 -6.5196 -0.353527 6.17356 -0.104832 -43.115 3.34212 1.37621 6.44726 -6.03468 -0.0128482 9.95968 -3.787 14.8504 0.579551 -1.99998 -5.28183 -35.0828 -9.72529 -5.92294 15.5469 8.62552 0.266485 9.98003 3.35272 -1.36466 -1.954 2.13844 2.2086 10.9963 19.8668 0.584123 -4.60038 -0.00158039 -1.3539e-009 8.75217e-006 -1.45966e-008 
-180.241 104.159 -1.98532 -0.279378 -0.482873 89.435 -0.0860172 -3.57578 -1.80976 -1.49547 13.0153 -1.75366 -5.34842 -5.95872 -0.0823873 0.0462048 0.00053089 0.662642 0.579294 1.82562 0.391433 -2.83996 0.435044 0.912612 4.39431 10.8329 0.999351 -6.77341 -0.371178 6.2561 -0.454566 -43.5621 2.55844 1.70065 6.75582 -5.72741 -0.0705407 9.96503 -3.87208 14.9505 0.58548 -1.98032 -4.51601 -35.117 -10.2343 -6.03151 15.0132 9.31195 0.211511 9.97792 3.54541 -1.30936 -2.34875 2.14826 2.17642 11.4895 19.8269 0.65918 -4.93938 -0.00154433 -1.3539e-009 8.75217e-006 -1.45966e-008 
